# xmcd CD database file
#
# Track frame offsets:
#	187
#	20477
#	40912
#
# Disc length: 813 seconds
#
# Revision: 0
# Processed by: cddbd v1.5PL3 Copyright (c) Steve Scherf et al.
# Submitted via: CDex 1.50Beta6
#
DISCID=1c032b03
DTITLE=THE ENDS - 蜘蛛と星
DYEAR=1996
DGENRE=JPop
TTITLE0=蜘蛛と星
TTITLE1=UNDER YOUR SKIN
TTITLE2=蜘蛛と星 (instrumental)
EXTD=YEAR: 1996
EXTT0=
EXTT1=
EXTT2=
PLAYORDER=
